<svg width="218" height="102" viewBox="0 0 218 102" fill="none" xmlns="http://www.w3.org/2000/svg">
    <path d="M6.64146 29.0661C7.88392 29.4473 8.00628 30.7332 8.22579 31.7057C9.60503 37.5272 11.1708 43.3074 12.177 49.2115C14.2856 61.3631 16.0833 73.5836 18.0607 85.6913C18.218 86.6776 18.4376 87.6502 18.7882 88.6666C19.8103 84.0639 20.066 79.412 21.157 74.8669C21.4747 74.8695 21.7302 74.8859 22.0478 74.8885C22.1848 75.6605 22.4529 76.4764 22.4033 77.2897C21.931 83.6671 21.4033 90.1298 20.8066 96.5348C20.5889 98.917 19.3862 99.621 17.6824 98.3937C16.3855 97.4409 15.1927 96.2463 14.1241 95.0241C11.8355 92.3216 9.60227 89.5339 7.36904 86.7462C5.92166 84.8786 5.89447 84.5928 5.81588 81.7656C9.99784 83.6841 11.7861 88.4668 15.2968 91.3363C15.2706 90.3939 15.3891 89.6382 15.259 88.9376C12.3939 70.1701 9.53557 51.4741 6.67048 32.7066C6.49955 31.5774 5.88661 30.4732 6.64146 29.0661Z" fill="#9018BE"/>
    <path d="M64.8407 13.5495C66.2191 14.3596 66.2113 15.9541 66.3508 17.1956C67.2602 24.6455 68.3878 32.0975 68.8607 39.5433C69.8771 54.8786 70.5297 70.2105 71.4009 85.4558C71.4676 86.6967 71.6071 87.9382 71.8916 89.2697C73.5909 83.9702 74.4185 78.3968 76.1902 73.1865C76.5535 73.2785 76.8441 73.3698 77.2074 73.4618C77.2754 74.4369 77.4885 75.5019 77.3382 76.475C76.0641 84.0818 74.7169 91.7765 73.2973 99.3819C72.7741 102.212 71.3165 102.73 69.5072 100.764C68.1322 99.2453 66.904 97.4621 65.8214 95.6803C63.5123 91.7609 61.2765 87.7536 59.0406 83.7464C57.5985 81.0753 57.6003 80.721 57.8354 77.2682C62.402 80.7656 63.8991 87.0693 67.5878 91.533C67.6662 90.3821 67.8888 89.4983 67.8204 88.6118C66.6988 65.0367 65.5768 41.5503 64.4553 17.9753C64.3894 16.5573 63.8148 15.0459 64.8407 13.5495Z" fill="#9018BE"/>
    <path d="M110.718 0.82279C112.037 1.88845 111.923 3.68691 111.979 5.10326C112.388 13.6101 113.014 22.1432 112.987 30.5975C112.975 48.0144 112.601 65.3876 112.451 82.687C112.434 84.0946 112.49 85.511 112.685 87.0448C114.733 81.2512 115.93 75.0528 118.045 69.3679C118.401 69.5117 118.684 69.6466 119.04 69.7903C119.043 70.8982 119.184 72.1234 118.969 73.205C117.191 81.6489 115.333 90.184 113.41 98.6104C112.699 101.746 111.212 102.171 109.54 99.7536C108.27 97.8887 107.165 95.7414 106.205 93.6117C104.166 88.9351 102.205 84.1674 100.244 79.3996C98.9848 76.227 99.0102 75.8273 99.4754 71.9569C103.794 76.4054 104.865 83.6834 108.243 89.1259C108.398 87.8357 108.679 86.8628 108.67 85.8549C109.128 59.1282 109.58 32.5015 110.038 5.77482C110.067 4.1674 109.595 2.39875 110.718 0.82279Z" fill="#9018BE"/>
    <path d="M160.222 5.16595C161.245 6.44123 160.973 8.1157 160.883 9.4642C160.407 17.5782 160.113 25.7614 159.27 33.7371C157.571 50.1767 155.566 66.5009 153.759 82.8014C153.609 84.1268 153.519 85.4753 153.536 86.963C155.846 81.9116 157.469 76.3044 159.824 71.3691C160.113 71.5774 160.342 71.7627 160.632 71.971C160.527 73.0173 160.528 74.2028 160.24 75.18C157.904 82.7885 155.492 90.4669 153.033 98.0292C152.123 100.845 150.813 100.942 149.621 98.3188C148.719 96.2993 147.984 94.0468 147.372 91.8404C146.086 87.0095 144.875 82.1086 143.665 77.2076C142.899 73.9557 142.959 73.5836 143.732 70.0247C146.984 75.1052 147.191 82.1943 149.546 88.0215C149.803 86.8352 150.137 85.974 150.227 85.0207C153.211 59.8835 156.179 34.8393 159.162 9.70206C159.343 8.19056 159.112 6.42466 160.222 5.16595Z" fill="#9018BE"/>
    <path d="M206.998 28.9997C207.92 30.3063 207.577 31.5053 207.426 32.5124C206.572 38.5918 205.892 44.783 204.693 50.6392C202.259 62.7218 199.536 74.6185 197.005 86.5601C196.796 87.53 196.644 88.537 196.588 89.6851C199.056 86.544 200.89 82.7565 203.397 79.7192C203.665 79.9719 203.877 80.1873 204.145 80.44C203.993 81.21 203.937 82.121 203.612 82.7794C200.994 87.8758 198.299 93.0015 195.566 98.0235C194.553 99.8947 193.288 99.5502 192.268 97.1544C191.498 95.315 190.901 93.3501 190.419 91.4596C189.416 87.3378 188.489 83.1865 187.563 79.0353C186.984 76.2926 187.06 76.0261 187.976 73.5398C190.859 78.482 190.714 83.9932 192.697 89.2217C193.002 88.3929 193.365 87.8384 193.498 87.135C197.591 68.7826 201.665 50.4969 205.757 32.1445C206.005 31.0414 205.868 29.6113 206.998 28.9997Z" fill="#9018BE"/>
</svg>
