<svg viewBox="0 0 38 38" fill="none" xmlns="http://www.w3.org/2000/svg">
    <path d="M18.1315 1.52188C18.5152 0.849419 19.4848 0.849419 19.8685 1.52188L22.483 6.10312C22.7386 6.55097 23.2928 6.73105 23.7628 6.51896L28.5707 4.3494C29.2765 4.03094 30.0608 4.6008 29.976 5.37041L29.3984 10.6134C29.3419 11.126 29.6844 11.5975 30.1894 11.7021L35.3543 12.773C36.1124 12.9301 36.412 13.8522 35.8911 14.425L32.342 18.3272C31.995 18.7086 31.995 19.2914 32.342 19.6728L35.8911 23.575C36.412 24.1478 36.1124 25.0699 35.3543 25.227L30.1894 26.2979C29.6844 26.4025 29.3419 26.874 29.3984 27.3866L29.976 32.6296C30.0608 33.3992 29.2765 33.9691 28.5707 33.6506L23.7628 31.481C23.2928 31.2689 22.7386 31.449 22.483 31.8969L19.8685 36.4781C19.4848 37.1506 18.5152 37.1506 18.1315 36.4781L15.517 31.8969C15.2614 31.449 14.7072 31.2689 14.2372 31.481L9.42927 33.6506C8.72353 33.9691 7.93918 33.3992 8.02397 32.6296L8.60161 27.3866C8.65808 26.874 8.31555 26.4025 7.81064 26.2979L2.64571 25.227C1.88757 25.0699 1.58797 24.1478 2.10893 23.575L5.65804 19.6728C6.00499 19.2914 6.00499 18.7086 5.65803 18.3272L2.10893 14.425C1.58797 13.8522 1.88757 12.9301 2.64571 12.773L7.81064 11.7021C8.31555 11.5975 8.65808 11.126 8.60161 10.6134L8.02397 5.37041C7.93918 4.6008 8.72353 4.03094 9.42927 4.3494L14.2372 6.51896C14.7072 6.73105 15.2614 6.55097 15.517 6.10312L18.1315 1.52188Z" fill="#9018BE"/>
    <path fill-rule="evenodd" clip-rule="evenodd" d="M25.7364 14.2584C26.0879 14.603 26.0879 15.1617 25.7364 15.5063L17.3364 23.7416C16.9849 24.0861 16.4151 24.0861 16.0636 23.7416L11.2636 19.0357C10.9121 18.6911 10.9121 18.1325 11.2636 17.7879C11.6151 17.4433 12.1849 17.4433 12.5364 17.7879L16.7 21.8698L24.4637 14.2584C24.8151 13.9139 25.3849 13.9139 25.7364 14.2584Z" fill="white"/>
</svg>
